<svg id="Livello_1" data-name="Livello 1" xmlns="http://www.w3.org/2000/svg" viewBox="0 0 8245.03 2147.45"><defs><style>.cls-1{fill:#141218;}.cls-2{fill:#2c2835;}.cls-3{fill:#c199ff;}.cls-10,.cls-11,.cls-4,.cls-7,.cls-8{fill:#fff;}.cls-5{fill:#525252;}.cls-6{fill:#211f26;}.cls-7{font-size:80.86px;font-family:JetBrainsMono-Regular, JetBrains Mono;}.cls-8{font-size:66.77px;font-family:JetBrainsMono-Light, JetBrains Mono;font-weight:300;}.cls-9{fill:#0f1511;}.cls-10{font-size:120.08px;}.cls-10,.cls-11{font-family:JetBrainsMono-Bold, JetBrains Mono;font-weight:700;}.cls-11{font-size:119.62px;}.cls-12{letter-spacing:0em;}.cls-13{fill:none;stroke:#211f26;stroke-miterlimit:10;stroke-width:4px;}</style></defs><rect class="cls-1" x="-188.75" y="-43.68" width="8622.52" height="2218.64"/><path class="cls-1" d="M7726,2175V206.84A116.28,116.28,0,0,0,7609.81,90.68H6090.21a116.28,116.28,0,0,0-116.15,116.16V2175Z"/><path class="cls-2" d="M6002.06,2175V206.84a88.25,88.25,0,0,1,88.15-88.16h1519.6A88.25,88.25,0,0,1,7698,206.84V2175h56V206.84c0-79.49-64.66-144.16-144.15-144.16H6090.21c-79.48,0-144.15,64.67-144.15,144.16V2175Z"/><path class="cls-3" d="M7489.23,1867.31a61.14,61.14,0,1,0,61.13,61.15A61.19,61.19,0,0,0,7489.23,1867.31Zm0,111.88a50.73,50.73,0,1,1,50.73-50.73A50.8,50.8,0,0,1,7489.23,1979.19Z"/><polygon class="cls-3" points="7515.71 1916.75 7508.35 1909.39 7481.27 1936.47 7470.11 1925.32 7462.75 1932.67 7481.27 1951.19 7515.71 1916.75"/><path class="cls-4" d="M6174,750c-2.14,2.14-5.18,3.19-9.13,3.19s-7-1-9.18-3.19-3.25-5.18-3.25-9.12v-37c0-4,1.09-7,3.25-9.13s5.24-3.19,9.18-3.19,7,1.05,9.13,3.19,3.19,5.16,3.19,9.13h14.66a25.43,25.43,0,0,0-3.38-13.32,22.82,22.82,0,0,0-9.42-8.72,34.43,34.43,0,0,0-28.47,0,22.51,22.51,0,0,0-9.37,8.72,26,26,0,0,0-3.3,13.32v37a26,26,0,0,0,3.3,13.31,22.45,22.45,0,0,0,9.37,8.72,34.43,34.43,0,0,0,28.47,0,22.76,22.76,0,0,0,9.42-8.72,25.44,25.44,0,0,0,3.38-13.31h-14.66C6177.21,744.77,6176.16,747.82,6174,750Z"/><path class="cls-4" d="M6257.18,706q-5.48-6.29-15.23-6.27c-4.89,0-8.85,1.22-11.91,3.65a16,16,0,0,0-5.76,9.94V700.85H6210.1v63.93h14.53V725.6c0-4.26,1-7.54,3-9.87s5-3.48,8.83-3.48,6.58,1,8.59,3.08,3,5,3,8.88v5.35h14.53v-6Q6262.64,712.23,6257.18,706Z"/><path class="cls-4" d="M6330.16,736.42V724.79a25.63,25.63,0,0,0-3.3-13.19,22.8,22.8,0,0,0-9.31-8.78,29.59,29.59,0,0,0-14-3.13,30.26,30.26,0,0,0-14.18,3.13,22.56,22.56,0,0,0-9.36,8.89,26.79,26.79,0,0,0-3.3,13.54v15.12a26.72,26.72,0,0,0,3.3,13.53,22.49,22.49,0,0,0,9.36,8.89,30.26,30.26,0,0,0,14.18,3.15c6.83,0,12.6-1.66,17.32-4.94a20,20,0,0,0,8.61-13.2h-14.42a6.3,6.3,0,0,1-3.78,4.59,17.35,17.35,0,0,1-7.73,1.57c-4.11,0-7.28-1.11-9.53-3.3s-3.37-5.5-3.37-9.83v-4.41Zm-39.51-11.63q0-6.62,3.26-10.29t9.64-3.65q6.18,0,9.41,3.59c2.17,2.42,3.26,5.81,3.26,10.23v2.22l-25.57.11Z"/><path class="cls-4" d="M6392.36,705.39q-6.75-5.7-19-5.7c-7.67,0-13.77,1.77-18.31,5.35a18.26,18.26,0,0,0-7.26,13.94h14a7.08,7.08,0,0,1,3.37-5.57,14.56,14.56,0,0,1,8.13-2q11.27,0,11.27,9.66v4.52H6369q-11.17,0-17.56,5.53t-6.4,14.81q0,9,5.64,14.47c3.77,3.69,8.89,5.53,15.4,5.53,5.35,0,9.68-1.16,13-3.48a13.43,13.43,0,0,0,5.81-9.67v12h14.18V721.41Q6399.09,711.09,6392.36,705.39Zm-7.8,37.19a10.4,10.4,0,0,1-3.73,8.37c-2.47,2.08-5.84,3.14-10.1,3.14-3.63,0-6.46-.89-8.43-2.62a8.83,8.83,0,0,1-3-6.92,9.09,9.09,0,0,1,2.81-6.86,10.4,10.4,0,0,1,7.54-2.67h14.88Z"/><path class="cls-4" d="M6469.88,714V700.85h-25.47v-18h-14.64v18h-17.66V714h17.66V745.6q0,8.83,5.29,14t14.24,5.18h20V751.63h-18.94a5.5,5.5,0,0,1-4.37-1.79,6.81,6.81,0,0,1-1.57-4.59V714Z"/><path class="cls-4" d="M6539.37,736.42V724.79a25.44,25.44,0,0,0-3.32-13.19,22.63,22.63,0,0,0-9.29-8.78,29.58,29.58,0,0,0-14-3.13,30.2,30.2,0,0,0-14.18,3.13,22.52,22.52,0,0,0-9.37,8.89,26.69,26.69,0,0,0-3.3,13.54v15.12a26.62,26.62,0,0,0,3.3,13.53,22.46,22.46,0,0,0,9.37,8.89,30.2,30.2,0,0,0,14.18,3.15c6.8,0,12.57-1.66,17.31-4.94a19.9,19.9,0,0,0,8.59-13.2h-14.4a6.34,6.34,0,0,1-3.78,4.59,17.34,17.34,0,0,1-7.72,1.57c-4.12,0-7.29-1.11-9.54-3.3s-3.37-5.5-3.37-9.83v-4.41Zm-39.51-11.63c0-4.41,1.09-7.84,3.24-10.29s5.39-3.65,9.67-3.65c4.09,0,7.24,1.19,9.4,3.59s3.26,5.81,3.26,10.23v2.22l-25.57.11Z"/><path class="cls-4" d="M6215.8,449.15h-62.48l18-18a6.18,6.18,0,0,0-8.74-8.74l-33,32.95,33.41,33.42a6.18,6.18,0,1,0,8.74-8.74l-18.49-18.49h62.48a6.19,6.19,0,0,0,0-12.37Z"/><path class="cls-4" d="M6155.52,1881.73v40.94a10.94,10.94,0,0,1-2.3,7.34c-1.55,1.8-3.87,2.71-6.95,2.71s-5.48-.91-7-2.71a11,11,0,0,1-2.27-7.34v-40.94H6130v40.94c0,5,1.38,9,4.17,11.87s6.8,4.36,12.06,4.36,9.33-1.44,12.08-4.32,4.13-6.86,4.13-11.91v-40.94Z"/><path class="cls-4" d="M6205.29,1899.07a13,13,0,0,0-10.2-4.21,12.73,12.73,0,0,0-7.89,2.36,9.39,9.39,0,0,0-3.63,6.53h-.07v-8.11h-7V1952h7v-12.37l-.15-9.66h.22a9.41,9.41,0,0,0,3.63,6.49,12.5,12.5,0,0,0,7.89,2.4,13,13,0,0,0,10.2-4.25c2.53-2.84,3.78-6.69,3.78-11.59v-12.43C6209.07,1905.72,6207.82,1901.89,6205.29,1899.07Zm-3.17,24c0,3.44-.83,6-2.47,7.5a9.67,9.67,0,0,1-6.88,2.31,8.77,8.77,0,0,1-6.77-2.7,10.63,10.63,0,0,1-2.5-7.5v-11.58a10.71,10.71,0,0,1,2.5-7.51,8.87,8.87,0,0,1,6.77-2.69,9.84,9.84,0,0,1,6.88,2.27c1.64,1.53,2.47,4,2.47,7.54Z"/><path class="cls-4" d="M6251.65,1899.07a13.06,13.06,0,0,0-10.2-4.21,12.69,12.69,0,0,0-7.89,2.36,9.36,9.36,0,0,0-3.63,6.53h-.08v-8.11h-7V1952h7v-12.37l-.14-9.66h.22a9.37,9.37,0,0,0,3.63,6.49,12.46,12.46,0,0,0,7.89,2.4,13,13,0,0,0,10.2-4.25c2.52-2.84,3.78-6.69,3.78-11.59v-12.43C6255.43,1905.72,6254.17,1901.89,6251.65,1899.07Zm-3.17,24c0,3.44-.83,6-2.47,7.5a9.67,9.67,0,0,1-6.88,2.31,8.77,8.77,0,0,1-6.77-2.7c-1.68-1.8-2.51-4.29-2.51-7.5v-11.58c0-3.19.83-5.7,2.51-7.51a8.87,8.87,0,0,1,6.77-2.69,9.84,9.84,0,0,1,6.88,2.27c1.64,1.53,2.47,4,2.47,7.54Z"/><path class="cls-4" d="M6302,1918.65v-7.56a16.84,16.84,0,0,0-2.1-8.58,14.46,14.46,0,0,0-5.83-5.64,18.2,18.2,0,0,0-8.75-2q-7.5,0-12.1,4.52t-4.59,12.48v10q0,8,4.59,12.49t12.1,4.52a19.11,19.11,0,0,0,11.19-3.12,11.8,11.8,0,0,0,5.18-8.46h-6.95a6.17,6.17,0,0,1-3.06,4,12.27,12.27,0,0,1-6.36,1.5,9.66,9.66,0,0,1-7.19-2.73,10.16,10.16,0,0,1-2.72-7.47v-4Zm-26.59-7.56c0-3.36.87-5.94,2.6-7.76s4.15-2.75,7.31-2.75a9.51,9.51,0,0,1,7.28,2.75c1.73,1.82,2.6,4.4,2.6,7.76v2.16h-19.79Z"/><path class="cls-4" d="M6345.85,1898.85q-3.59-4-10.23-4a12,12,0,0,0-7.87,2.4,9.69,9.69,0,0,0-3.49,6.49h-.15v-8.11h-6.95v42.48h6.95v-27q0-5,2.4-7.58t6.95-2.62c6,0,9,3.08,9,9.28v3.63h6.95v-3.63C6349.45,1905.26,6348.25,1901.5,6345.85,1898.85Z"/><path class="cls-4" d="M6385.53,1930.49a11.58,11.58,0,0,1-14.17-.39c-1.83-1.75-2.75-4.22-2.75-7.43V1911c0-3.19.92-5.67,2.75-7.38a11.66,11.66,0,0,1,14.17-.39,8.58,8.58,0,0,1,2.79,6.29h7a14.09,14.09,0,0,0-4.76-10.73c-3-2.64-7-4-11.85-4-5.15,0-9.28,1.44-12.36,4.34s-4.64,6.84-4.64,11.89v11.58q0,7.57,4.64,11.91c3.08,2.88,7.21,4.32,12.36,4.32,4.88,0,8.85-1.31,11.85-3.93a14.18,14.18,0,0,0,4.76-10.75h-7A8.71,8.71,0,0,1,6385.53,1930.49Z"/><path class="cls-4" d="M6436.33,1898.57q-4.14-3.71-11.85-3.71-7.11,0-11.4,3.28a11.24,11.24,0,0,0-4.68,8.3h7a4.94,4.94,0,0,1,2.64-4.09,12.55,12.55,0,0,1,6.49-1.46c6,0,9,2.75,9,8.26v3.32h-13.13a15.42,15.42,0,0,0-7.26,1.66,12.36,12.36,0,0,0-4.94,4.61,12.87,12.87,0,0,0-1.79,6.88,12.63,12.63,0,0,0,3.87,9.61q3.85,3.68,10.42,3.67a15.34,15.34,0,0,0,8.81-2.27,9,9,0,0,0,3.95-6.24h.15v7.73h6.88v-29.19C6440.47,1904.49,6439.08,1901,6436.33,1898.57Zm-2.82,25.26a8.3,8.3,0,0,1-3,6.73,12.47,12.47,0,0,1-8.12,2.47,9.56,9.56,0,0,1-6.52-2,7,7,0,0,1-2.36-5.6,7.17,7.17,0,0,1,2.12-5.44,7.66,7.66,0,0,1,5.53-2h12.35Z"/><path class="cls-4" d="M6476.55,1913.56l-11-1.55q-4.09-.6-4.09-5.09a5.32,5.32,0,0,1,2-4.41,8.57,8.57,0,0,1,5.55-1.62h3.41a8.33,8.33,0,0,1,5.12,1.46,4.92,4.92,0,0,1,2.14,3.72h7a10.56,10.56,0,0,0-4.23-8,15.85,15.85,0,0,0-10.06-3.06h-3.41c-4.48,0-8,1.07-10.55,3.17a10.73,10.73,0,0,0-3.82,8.74,12.05,12.05,0,0,0,2.4,7.84,10.11,10.11,0,0,0,6.71,3.59l11.75,1.7c3.35.46,5,2.53,5,6.18a5.79,5.79,0,0,1-2.14,4.79,9.33,9.33,0,0,1-6,1.7h-3.41a9.18,9.18,0,0,1-5.87-1.66,5.52,5.52,0,0,1-2.08-4.59h-7q0,5.87,3.89,9.07t11,3.21h3.41q7.11,0,11-3.28t3.89-9.24Q6487.36,1915.11,6476.55,1913.56Z"/><path class="cls-4" d="M6533.79,1918.65v-7.56a16.84,16.84,0,0,0-2.09-8.58,14.5,14.5,0,0,0-5.82-5.64,18.35,18.35,0,0,0-8.78-2q-7.5,0-12.08,4.52t-4.61,12.48v10q0,8,4.61,12.49t12.08,4.52a19.13,19.13,0,0,0,11.21-3.12,11.8,11.8,0,0,0,5.18-8.46h-6.95a6.17,6.17,0,0,1-3.06,4,12.3,12.3,0,0,1-6.38,1.5,9.62,9.62,0,0,1-7.17-2.73,10.15,10.15,0,0,1-2.71-7.47v-4Zm-26.57-7.56c0-3.36.86-5.94,2.59-7.76a9.52,9.52,0,0,1,7.29-2.75c3.15,0,5.59.92,7.3,2.75s2.6,4.4,2.6,7.76v2.16h-19.78Z"/><path class="cls-4" d="M6140.07,1510.13v-50.06h-6.95v56.38h32.45v-6.32Z"/><path class="cls-4" d="M6209.31,1497v-7.56a16.78,16.78,0,0,0-2.1-8.57,14.09,14.09,0,0,0-5.83-5.64,18.13,18.13,0,0,0-8.76-2c-5,0-9,1.51-12.09,4.51s-4.59,7.18-4.59,12.49v10q0,8,4.59,12.48c3.06,3,7.1,4.52,12.09,4.52a18.93,18.93,0,0,0,11.2-3.14,11.77,11.77,0,0,0,5.18-8.44h-6.95a6.2,6.2,0,0,1-3.06,4,12.28,12.28,0,0,1-6.37,1.5,9.69,9.69,0,0,1-7.19-2.73,10.21,10.21,0,0,1-2.71-7.47v-4Zm-26.59-7.56q0-5,2.6-7.76a11.05,11.05,0,0,1,14.59,0q2.6,2.73,2.6,7.76v2.16h-19.79Z"/><path class="cls-4" d="M6251.41,1477.14c-2.53-2.64-5.92-3.94-10.2-3.94a12.22,12.22,0,0,0-7.8,2.32,9.51,9.51,0,0,0-3.48,6.56h-.08V1474h-7v42.48h7v-27c0-3.3.83-5.84,2.51-7.65a8.87,8.87,0,0,1,6.84-2.71,8.59,8.59,0,0,1,6.6,2.6c1.63,1.71,2.44,4.2,2.44,7.45v27.34h6.95v-28.58Q6255.19,1481.07,6251.41,1477.14Z"/><path class="cls-4" d="M6294.45,1474v7.34h-.15a8.86,8.86,0,0,0-3.63-6,12.69,12.69,0,0,0-7.58-2.15c-4.37,0-7.84,1.42-10.35,4.24s-3.8,6.67-3.8,11.52v9c0,4.83,1.28,8.65,3.8,11.43s6,4.17,10.35,4.17a13.24,13.24,0,0,0,7.58-2,8.46,8.46,0,0,0,3.63-5.83h.22l-.15,6.95v3.85a7.45,7.45,0,0,1-2.08,5.54,7.85,7.85,0,0,1-5.72,2h-12v6.33h11.89c4.59,0,8.21-1.24,10.86-3.75s4-5.88,4-10.16V1474Zm0,23.56A10.68,10.68,0,0,1,6292,1505a8.71,8.71,0,0,1-6.8,2.71,9,9,0,0,1-6.84-2.54,9.6,9.6,0,0,1-2.43-6.88v-9.66a9.54,9.54,0,0,1,2.43-6.88,9,9,0,0,1,6.84-2.55,8.78,8.78,0,0,1,6.8,2.7,10.7,10.7,0,0,1,2.48,7.5Z"/><path class="cls-4" d="M6344.12,1477.14c-2.53-2.64-5.92-3.94-10.2-3.94a12.22,12.22,0,0,0-7.8,2.32,9.51,9.51,0,0,0-3.48,6.56h-.08v-22h-7v56.38h7v-27c0-3.3.83-5.84,2.51-7.65a8.89,8.89,0,0,1,6.84-2.71,8.59,8.59,0,0,1,6.6,2.6c1.63,1.71,2.44,4.18,2.44,7.37v27.42h6.95v-28.58C6347.9,1483.34,6346.65,1479.76,6344.12,1477.14Z"/><path class="cls-4" d="M6395,1480.29V1474h-17.37v-12h-7v12h-12.21v6.32h12.21v25a10.88,10.88,0,0,0,3.17,8.15,11.68,11.68,0,0,0,8.43,3h12.35v-6.32h-12.35a4.4,4.4,0,0,1-3.36-1.37,4.89,4.89,0,0,1-1.27-3.5v-25Z"/><path class="cls-5" d="M6171.64,862.27h-15.23l-22,84.84h11.73l5.34-22.07h24.88l5.34,22.07h11.75Zm-17.79,53.23L6160,890c1.08-4.58,2-8.48,2.67-11.73s1.12-5.48,1.29-6.64c.15,1.16.57,3.38,1.27,6.64s1.62,7.19,2.79,11.86l6,25.33Z"/><path class="cls-5" d="M6323,888.47c-3.8-4.3-8.89-6.45-15.23-6.45-4.81,0-8.76,1.19-11.86,3.61a14.74,14.74,0,0,0-5.58,9.87h-.11V883.18h-11.4V968h11.51v-18.5l-.22-14.75h.22a15.14,15.14,0,0,0,5.69,9.88,18.61,18.61,0,0,0,11.75,3.6c6.34,0,11.43-2.14,15.23-6.46s5.68-10.16,5.68-17.6V906Q6328.65,894.93,6323,888.47Zm-5.83,35.74q0,7.44-3.54,10.75t-9.94,3.31c-4.11,0-7.35-1.27-9.75-3.83s-3.61-6.16-3.61-10.81v-17c0-4.67,1.2-8.26,3.61-10.82a12.74,12.74,0,0,1,9.75-3.84q6.39,0,9.94,3.32t3.54,10.75Z"/><path class="cls-5" d="M6391.42,887.6Q6385,882,6373.29,882q-10.92,0-17.44,5.05a17.34,17.34,0,0,0-7.08,12.85h11.39a7.22,7.22,0,0,1,3.76-6,18.13,18.13,0,0,1,9.37-2.14q13,0,13,11.73v4.88h-18.72q-9.77,0-15.74,5.46t-6,14.42q0,9,5.76,14.48c3.83,3.66,9.05,5.51,15.63,5.51,5.42,0,9.83-1.16,13.19-3.49a13.2,13.2,0,0,0,5.88-9.42h.22v11.75h11.29V903.3C6397.82,896.55,6395.68,891.33,6391.42,887.6Zm-5.11,37.77a11.83,11.83,0,0,1-4.37,9.71q-4.35,3.54-11.67,3.54-6.06,0-9.42-3a10.08,10.08,0,0,1-3.38-8,10.36,10.36,0,0,1,3.1-7.84,11.17,11.17,0,0,1,8.07-3h17.67Z"/><path class="cls-5" d="M6451.86,909.8l-16.15-2.32c-4.28-.55-6.4-3-6.4-7.21a7.65,7.65,0,0,1,2.84-6.27c1.9-1.57,4.59-2.34,8.08-2.34h5.12a12,12,0,0,1,7.54,2.16,7.24,7.24,0,0,1,3,5.4h11.63a15.81,15.81,0,0,0-6.4-12.32q-6-4.64-15.8-4.64h-5.12q-10.45,0-16.27,4.75t-5.81,13.37c0,4.89,1.24,8.85,3.71,11.91a16.21,16.21,0,0,0,10.58,5.65l17.21,2.43q7.67.95,7.67,8.72a8.25,8.25,0,0,1-3.08,6.86c-2.05,1.62-5,2.44-8.78,2.44h-5.11c-3.65,0-6.49-.8-8.55-2.38a7.86,7.86,0,0,1-3.08-6.57h-11.38q0,8.82,6,13.72t17,4.89h5.11c7.36,0,13-1.66,17-4.94s6-8,6-14Q6468.47,912,6451.86,909.8Z"/><path class="cls-5" d="M6521.6,909.8l-16.15-2.32c-4.28-.55-6.4-3-6.4-7.21a7.65,7.65,0,0,1,2.84-6.27c1.9-1.57,4.59-2.34,8.07-2.34h5.13a12,12,0,0,1,7.54,2.16,7.23,7.23,0,0,1,3,5.4h11.64a15.81,15.81,0,0,0-6.4-12.32c-4-3.09-9.29-4.64-15.8-4.64H6510q-10.46,0-16.26,4.75t-5.81,13.37c0,4.89,1.24,8.85,3.71,11.91a16.21,16.21,0,0,0,10.58,5.65l17.21,2.43c5.1.63,7.67,3.54,7.67,8.72A8.28,8.28,0,0,1,6524,936c-2.07,1.62-5,2.44-8.78,2.44h-5.11c-3.65,0-6.49-.8-8.55-2.38a7.86,7.86,0,0,1-3.08-6.57h-11.38q0,8.82,6,13.72t17,4.89h5.11c7.36,0,13-1.66,17-4.94s6-8,6-14Q6538.21,912,6521.6,909.8Z"/><path class="cls-5" d="M6604.81,883.18l-6.51,43.59c-.23,1.93-.47,4-.7,6.21s-.42,4.06-.59,5.53c-.14-1.47-.36-3.31-.62-5.53s-.57-4.28-.89-6.21l-7.67-43.59h-10.91l-7.68,43.59c-.31,1.93-.59,4-.81,6.27s-.42,4.07-.59,5.47c-.07-1.4-.22-3.22-.46-5.47s-.46-4.34-.7-6.27l-6.27-43.59h-9.77L6561,947.11h12.45l7.32-43c.31-2.11.65-4.43,1-7s.55-4.58.62-6c.17,1.47.37,3.48.65,6s.55,4.86.87,7l7.09,43h12.32l10.81-63.93Z"/><path class="cls-5" d="M6670.77,889q-6.92-6.74-18.66-6.74T6633.45,889q-6.91,6.74-6.91,18.83v14.64q0,12.09,6.91,18.83t18.66,6.75q11.73,0,18.66-6.75t6.92-18.83V907.83Q6677.69,895.74,6670.77,889Zm-4.59,34.52c0,4.72-1.27,8.3-3.78,10.75s-6,3.65-10.29,3.65-7.76-1.21-10.29-3.65-3.78-6-3.78-10.75V906.78c0-4.72,1.27-8.32,3.78-10.75s6-3.67,10.29-3.67,7.76,1.22,10.29,3.67,3.78,6,3.78,10.75Z"/><path class="cls-5" d="M6743.7,888.12q-5.47-6.09-15.34-6.1c-5,0-8.93,1.19-11.92,3.61a15,15,0,0,0-5.4,9.87h-.11V883.18h-11.39v63.93H6711V906.78q0-7.08,3.43-10.93c2.29-2.55,5.63-3.84,10.05-3.84q13.14,0,13.13,13.37v5.48h11.51v-5.59Q6749.16,894.23,6743.7,888.12Z"/><path class="cls-5" d="M6804.71,862.27v18.36l.24,14.87a15.1,15.1,0,0,0-5.75-9.87,18.76,18.76,0,0,0-11.8-3.61c-6.44,0-11.54,2.15-15.34,6.45s-5.7,10.14-5.7,17.5v18.36q0,11,5.7,17.48c3.8,4.32,8.9,6.46,15.34,6.46a18.6,18.6,0,0,0,11.74-3.6,15.1,15.1,0,0,0,5.68-10v12.43h11.4V862.27Zm0,61.36q0,7-3.59,10.81c-2.42,2.56-5.66,3.83-9.78,3.83s-7.56-1.1-9.93-3.31-3.54-5.79-3.54-10.75V906.08q0-7.44,3.54-10.75t9.93-3.32a12.82,12.82,0,0,1,9.78,3.84c2.39,2.56,3.59,6.15,3.59,10.82Z"/><path class="cls-5" d="M6939.3,872.61H6958V862.27H6939.3q-8.6,0-13.59,4.53t-5,12.19V891.9h-18.36v10.45h18.36v44.76h11.51V902.35H6958V891.9h-25.8V879.12C6932.22,874.77,6934.58,872.61,6939.3,872.61Z"/><path class="cls-5" d="M7019.44,889q-6.91-6.74-18.64-6.74T6982.14,889q-6.92,6.74-6.92,18.83v14.64q0,12.09,6.92,18.83t18.66,6.75q11.71,0,18.64-6.75t6.91-18.83V907.83Q7026.35,895.74,7019.44,889Zm-4.59,34.52q0,7.08-3.78,10.75t-10.27,3.65q-6.54,0-10.29-3.65c-2.53-2.45-3.78-6-3.78-10.75V906.78c0-4.72,1.25-8.32,3.78-10.75s5.93-3.67,10.29-3.67,7.76,1.22,10.27,3.67,3.78,6,3.78,10.75Z"/><path class="cls-5" d="M7092.38,888.12Q7086.9,882,7077,882c-5,0-8.94,1.19-11.93,3.61a15.07,15.07,0,0,0-5.4,9.87h-.11V883.18h-11.4v63.93h11.51V906.78q0-7.08,3.43-10.93c2.28-2.55,5.64-3.84,10.07-3.84q13.11,0,13.12,13.37v5.48h11.51v-5.59Q7097.84,894.23,7092.38,888.12Z"/><path class="cls-5" d="M7227,883.18,7213.6,921q-.93,2.43-1.75,5.24a47.23,47.23,0,0,0-1.16,4.86,33.29,33.29,0,0,0-1.27-4.86c-.63-1.87-1.24-3.62-1.87-5.24l-14.42-37.78H7181l23.82,60.09L7195.46,968h12l31.72-84.86Z"/><path class="cls-5" d="M7298.39,889q-6.92-6.74-18.67-6.74T7261.08,889q-6.91,6.74-6.91,18.83v14.64q0,12.09,6.91,18.83t18.64,6.75q11.76,0,18.67-6.75t6.91-18.83V907.83Q7305.3,895.74,7298.39,889Zm-4.6,34.52c0,4.72-1.25,8.3-3.78,10.75s-5.93,3.65-10.29,3.65-7.76-1.21-10.28-3.65-3.77-6-3.77-10.75V906.78c0-4.72,1.26-8.32,3.77-10.75s6-3.67,10.28-3.67,7.79,1.22,10.29,3.67,3.78,6,3.78,10.75Z"/><path class="cls-5" d="M7362.83,883.18v40.45q0,6.75-3.6,10.64c-2.41,2.58-5.69,3.89-9.88,3.89s-7.34-1.31-9.7-3.89-3.56-6.14-3.56-10.64V883.18h-11.5v40.45c0,7.6,2.25,13.59,6.75,18s10.49,6.62,18,6.62,13.67-2.21,18.18-6.62,6.81-10.42,6.81-18V883.18Z"/><path class="cls-5" d="M7441.05,888.12c-3.63-4.06-8.76-6.1-15.34-6.1-5,0-8.93,1.19-11.91,3.61a14.92,14.92,0,0,0-5.41,9.87h-.11V883.18h-11.39v63.93h11.5V906.78q0-7.08,3.43-10.93c2.29-2.55,5.63-3.84,10.05-3.84q13.14,0,13.13,13.37v5.48h11.51v-5.59Q7446.51,894.23,7441.05,888.12Z"/><path class="cls-5" d="M6177.1,1023v18.36l.24,14.88a15.07,15.07,0,0,0-5.76-9.88,18.9,18.9,0,0,0-11.8-3.6q-9.64,0-15.34,6.44t-5.7,17.5V1085q0,11,5.7,17.5t15.34,6.44a18.59,18.59,0,0,0,11.73-3.6,15.14,15.14,0,0,0,5.7-10v12.42h11.39V1023Zm0,61.36q0,7-3.6,10.81t-9.77,3.83c-4.26,0-7.58-1.09-9.94-3.3s-3.54-5.79-3.54-10.75v-18.14q0-7.44,3.54-10.75t9.94-3.3q6.17,0,9.77,3.83t3.6,10.81Z"/><path class="cls-5" d="M6242.41,1097.35v-53.46h-31.6v10.46h20.09v43h-22.42v10.45h55v-10.45Zm-.57-78a10.44,10.44,0,0,0-12.56,0,7.22,7.22,0,0,0-2.32,5.68,7,7,0,0,0,2.32,5.53,10.73,10.73,0,0,0,12.56,0,7,7,0,0,0,2.32-5.53A7.22,7.22,0,0,0,6241.84,1019.37Z"/><path class="cls-5" d="M6316.68,1043.89v11h-.11a14.6,14.6,0,0,0-5.75-8.94,18.52,18.52,0,0,0-11.21-3.25c-6.6,0-11.78,2.14-15.58,6.44s-5.7,10.14-5.7,17.5v13.13q0,11.06,5.7,17.38c3.8,4.23,9,6.33,15.58,6.33,4.64,0,8.46-1.09,11.43-3.25a14.23,14.23,0,0,0,5.64-9.18h.11l-.22,11.05v5.34a10.66,10.66,0,0,1-3.13,8.08,11.74,11.74,0,0,1-8.37,3h-18v10.23h18c7,0,12.63-1.9,16.72-5.69s6.18-9,6.18-15.46v-63.69Zm-.11,35.33q0,7-3.61,10.81c-2.4,2.56-5.64,3.83-9.76,3.83s-7.56-1.21-9.88-3.67-3.48-5.75-3.48-9.92v-14c0-4.19,1.16-7.49,3.48-9.94s5.62-3.65,9.88-3.65,7.36,1.27,9.76,3.83,3.61,6.12,3.61,10.7Z"/><path class="cls-5" d="M6381.88,1097.35v-53.46h-31.6v10.46h20.1v43H6348v10.45h55v-10.45Zm-.57-78a10.43,10.43,0,0,0-12.55,0,7.23,7.23,0,0,0-2.33,5.68,7,7,0,0,0,2.33,5.53,10.71,10.71,0,0,0,12.55,0,7,7,0,0,0,2.33-5.53A7.23,7.23,0,0,0,6381.31,1019.37Z"/><path class="cls-5" d="M6468.82,1054.35v-10.46H6442.9v-18h-11.51v18h-18.23v10.46h18.23v36c0,5.27,1.63,9.5,4.83,12.67s7.58,4.75,13.08,4.75h18.93v-10.45h-18.69a6.17,6.17,0,0,1-4.83-2,7.3,7.3,0,0,1-1.81-5.11v-35.92Z"/><path class="cls-5" d="M6530.89,1048.3q-6.39-5.58-18.12-5.57c-7.29,0-13.12,1.68-17.45,5a17.4,17.4,0,0,0-7.08,12.84h11.38a7.23,7.23,0,0,1,3.78-6,17.9,17.9,0,0,1,9.37-2.15q13,0,13,11.74v4.87h-18.71q-9.76,0-15.75,5.48t-6,14.4q0,9,5.75,14.47t15.64,5.52q8.13,0,13.18-3.49a13.19,13.19,0,0,0,5.88-9.4h.22v11.72h11.29V1064Q6537.29,1053.9,6530.89,1048.3Zm-5.11,37.78a11.8,11.8,0,0,1-4.37,9.7c-2.89,2.36-6.8,3.54-11.67,3.54-4,0-7.17-1-9.42-3a10.09,10.09,0,0,1-3.38-8,10.44,10.44,0,0,1,3.08-7.86,11.23,11.23,0,0,1,8.08-3h17.68Z"/><path class="cls-5" d="M6592.26,1097.35a7.68,7.68,0,0,1-5.87-2.27,8.46,8.46,0,0,1-2.15-6.1v-66h-33.36v10.45h21.85v55.69q0,8.46,5.24,13.59t13.94,5.1h19.76v-10.45Z"/><path class="cls-5" d="M6743.7,1048.84q-5.47-6.12-15.34-6.11-7.44,0-11.92,3.6a15,15,0,0,0-5.4,9.88h-.11v-12.32h-11.39v63.91H6711v-40.32c0-4.72,1.14-8.37,3.43-10.92s5.63-3.83,10.05-3.83q13.14,0,13.13,13.36v5.46h11.51V1066Q6749.16,1054.93,6743.7,1048.84Z"/><path class="cls-5" d="M6817.16,1078.76v-11.5a25.15,25.15,0,0,0-3.21-12.86,22.28,22.28,0,0,0-8.94-8.59,28,28,0,0,0-13.43-3.08q-11.51,0-18.53,6.86c-4.7,4.56-7,10.81-7,18.7v15.12q0,11.83,7,18.72t18.53,6.84q10.13,0,17-4.76a18.23,18.23,0,0,0,8-12.91h-11.51a8.34,8.34,0,0,1-4.29,5.83,18.25,18.25,0,0,1-9.19,2.08q-6.63,0-10.45-3.94t-3.84-10.94v-5.57Zm-39.87-11.5q0-7.34,3.71-11.29c2.49-2.64,6-3.94,10.58-3.94s8.1,1.3,10.57,3.94,3.72,6.4,3.72,11.29v3h-28.58Z"/><path class="cls-5" d="M6879.56,1048.3c-4.26-3.72-10.29-5.57-18.13-5.57q-10.92,0-17.42,5a17.36,17.36,0,0,0-7.1,12.84h11.39a7.17,7.17,0,0,1,3.78-6,17.9,17.9,0,0,1,9.35-2.15q13,0,13,11.74v4.87h-18.72q-9.75,0-15.74,5.48t-6,14.4q0,9,5.76,14.47t15.61,5.52q8.15,0,13.21-3.49a13.13,13.13,0,0,0,5.86-9.4h.24v11.72H6886V1064C6886,1057.26,6883.84,1052,6879.56,1048.3Zm-5.11,37.78a11.87,11.87,0,0,1-4.35,9.7q-4.38,3.54-11.69,3.54c-4,0-7.16-1-9.41-3a10.08,10.08,0,0,1-3.37-8,10.4,10.4,0,0,1,3.08-7.86,11.16,11.16,0,0,1,8.08-3h17.66Z"/><path class="cls-5" d="M6940.94,1097.35a7.73,7.73,0,0,1-5.88-2.27,8.46,8.46,0,0,1-2.14-6.1v-66h-33.36v10.45h21.85v55.69q0,8.46,5.22,13.59c3.49,3.41,8.13,5.1,14,5.1h19.75v-10.45Z"/><path class="cls-5" d="M7025.32,1047.32a12,12,0,0,0-9.77-4.59,10.83,10.83,0,0,0-7.32,2.49,11,11,0,0,0-3.6,6.92,14.5,14.5,0,0,0-4.19-6.86,10.53,10.53,0,0,0-7.2-2.55,10.06,10.06,0,0,0-7.27,2.73,11.24,11.24,0,0,0-3.32,7.14h-.35v-8.71h-9.75v63.91H6983v-48.45a8.62,8.62,0,0,1,1.81-5.81,6,6,0,0,1,4.83-2.1,5.78,5.78,0,0,1,4.76,2.15,8.91,8.91,0,0,1,1.75,5.76v48.45h9.29v-48.45a8.76,8.76,0,0,1,1.74-5.81,5.85,5.85,0,0,1,4.77-2.1,5.92,5.92,0,0,1,4.81,2.15,8.71,8.71,0,0,1,1.81,5.76v48.45H7029v-48.56Q7029,1051.9,7025.32,1047.32Z"/><path class="cls-5" d="M6143.35,2040.81v-4.33h-13.23v50.83h13.23V2083H6135v-42.19Z"/><path class="cls-5" d="M6171,2041.9h-6.54l-10.27,39.48h5l2.58-10.5h12l2.58,10.5h4.92Zm-8.27,24.87,3-12.22c.57-2.27,1-4.19,1.34-5.74s.52-2.56.59-3c.08.46.28,1.47.59,3s.78,3.49,1.37,5.79l3,12.17Z"/><path class="cls-5" d="M6211.58,2065.83a9.45,9.45,0,0,0-2.75-3.45,8.16,8.16,0,0,0-4.09-1.62v-.15a8.16,8.16,0,0,0,5-3,8.52,8.52,0,0,0,1.93-5.46,9.56,9.56,0,0,0-3.06-7.52q-3.07-2.68-8.46-2.69H6189v39.48h12c3.59,0,6.43-1,8.52-3a10.59,10.59,0,0,0,3.11-8A10.47,10.47,0,0,0,6211.58,2065.83Zm-17.87-19.56h6.44a7,7,0,0,1,4.92,1.67,6,6,0,0,1,1.79,4.56A5.89,5.89,0,0,1,6205,2057a6.94,6.94,0,0,1-4.94,1.67h-6.38Zm12.08,28.91a7.56,7.56,0,0,1-5.37,1.81h-6.71v-14h6.71a7.09,7.09,0,0,1,5.37,2,7.17,7.17,0,0,1,2,5.28A6.32,6.32,0,0,1,6205.79,2075.18Z"/><path class="cls-5" d="M6238,2075.71a6.55,6.55,0,0,1-4.95,1.83,6.69,6.69,0,0,1-5-1.83,6.88,6.88,0,0,1-1.81-5.16V2052.7a7,7,0,0,1,1.81-5.16,6.76,6.76,0,0,1,5-1.81,6.62,6.62,0,0,1,4.95,1.81,7.1,7.1,0,0,1,1.77,5.16h4.86a11.14,11.14,0,0,0-3.13-8.3,13.32,13.32,0,0,0-17,0c-2.1,2-3.14,4.79-3.14,8.31v17.85a11,11,0,0,0,3.14,8.34c2.08,2,4.94,3,8.53,3a11.56,11.56,0,0,0,8.45-3.06,11.07,11.07,0,0,0,3.13-8.3h-4.86A7,7,0,0,1,6238,2075.71Z"/><path class="cls-5" d="M6256.94,2036.48v4.33h8.37V2083h-8.37v4.31h13.24v-50.83Z"/><path class="cls-5" d="M6143.35,1617.28V1613h-13.23v50.83h13.23v-4.31H6135v-42.19Z"/><path class="cls-5" d="M6171.92,1653.4v-35h-6.66l-8.92,6.64v5.56l10.71-8v30.83h-10.71v4.45h24.34v-4.45Z"/><path class="cls-5" d="M6208.8,1636.12c-2-2-4.8-3-8.43-3H6194l-.11-10.33h16.48v-4.42h-21v19.19h10.77a6.61,6.61,0,0,1,5,1.9,7.07,7.07,0,0,1,1.84,5.13V1647a7,7,0,1,1-14.06,0H6188a11,11,0,0,0,3.19,8.3c2.12,2,5,3.06,8.65,3.06s6.6-1,8.74-3.06a10.93,10.93,0,0,0,3.2-8.3v-2.43C6211.76,1641,6210.79,1638.13,6208.8,1636.12Z"/><path class="cls-5" d="M6224.49,1613v4.33h8.37v42.19h-8.37v4.31h13.24V1613Z"/><path class="cls-3" d="M7544.52,446.57c-1.8,2-3.77,3.81-5.66,5.7a7.7,7.7,0,0,1-.63.5v-1.2c0-7.78,0-15.56,0-23.34a21,21,0,0,0-21.39-21.13H7496c-2.81,0-5.61,0-8.42,0a3.76,3.76,0,0,0-3.71,4.36,3.84,3.84,0,0,0,4.15,3.28c9.75,0,19.51,0,29.26,0a13.25,13.25,0,0,1,13.31,13.31q0,11.91,0,23.82c0,.26,0,.52-.06.78l-.22.12a8.47,8.47,0,0,0-.58-.76c-2-2-4.08-4.12-6.16-6.15a3.82,3.82,0,1,0-5.24,5.55q6.48,6.51,13,13c2.09,2.09,4.14,2.09,6.23,0,3.95-3.94,7.92-7.87,11.83-11.85a26.13,26.13,0,0,0,2.08-2.78v-1.73s-.11-.08-.12-.13A3.91,3.91,0,0,0,7544.52,446.57Z"/><path class="cls-3" d="M7517,495.92c-9.85,0-19.7,0-29.55,0a13.21,13.21,0,0,1-13.1-13.12c0-8,0-16.07,0-24.1,0-.23.05-.46.09-.82,2.36,2.36,4.6,4.63,6.87,6.87a3.82,3.82,0,0,0,5.48.12,3.78,3.78,0,0,0-.05-5.48q-6.71-6.75-13.46-13.46a3.74,3.74,0,0,0-5.54,0q-6.55,6.51-13.05,13.05a3.78,3.78,0,0,0-.06,5.48,3.82,3.82,0,0,0,5.48-.11c1.94-1.9,3.84-3.83,5.76-5.74.22-.22.45-.42.82-.77V459c0,7.81,0,15.62,0,23.43a21.89,21.89,0,0,0,.49,4.64,20.82,20.82,0,0,0,20.52,16.46c9.76,0,19.51,0,29.27,0h.38a3.77,3.77,0,0,0,3.69-4.37A3.81,3.81,0,0,0,7517,495.92Z"/><rect class="cls-3" x="6646.01" y="1484.9" width="193.5" height="6.72"/><rect class="cls-5" x="6823.12" y="1484.9" width="745.27" height="6.72"/><circle class="cls-3" cx="6845.8" cy="1488.26" r="28.65"/><path class="cls-4" d="M6143,251.78l9.88-10.58a35.68,35.68,0,0,0,5.61-7.54,13.91,13.91,0,0,0,1.7-6.35,10.26,10.26,0,0,0-3.4-8.18c-2.26-2-5.36-2.95-9.29-2.95a15.07,15.07,0,0,0-7.21,1.64,11.58,11.58,0,0,0-4.81,4.59,13.13,13.13,0,0,0-1.68,6.66h6.75a7.87,7.87,0,0,1,1.81-5.48,6.47,6.47,0,0,1,5.08-2,5.67,5.67,0,0,1,4.38,1.77,6.66,6.66,0,0,1,1.62,4.66,8.67,8.67,0,0,1-1.24,4.37,32.82,32.82,0,0,1-4.15,5.44l-13.48,14.7v4.65h27.2v-5.41Z"/><path class="cls-4" d="M6189.8,240a10,10,0,0,0-5.07-3.58,10.68,10.68,0,0,0,4.48-3.61,8.63,8.63,0,0,0,1.75-5.15,10.69,10.69,0,0,0-3.46-8.44q-3.47-3-9.52-3a15.19,15.19,0,0,0-6.62,1.42,11.09,11.09,0,0,0-4.62,4,10.24,10.24,0,0,0-1.65,5.66h6.75a5.23,5.23,0,0,1,1.75-4.09,6.39,6.39,0,0,1,4.47-1.57,6.06,6.06,0,0,1,4.63,1.58,6.28,6.28,0,0,1,1.51,4.48,5.73,5.73,0,0,1-1.81,4.6,7.53,7.53,0,0,1-4.94,1.62h-4.11v5.33h4a8.09,8.09,0,0,1,5.6,1.71,6.34,6.34,0,0,1,1.9,4.93,6.27,6.27,0,0,1-1.8,4.83,7.11,7.11,0,0,1-5,1.66,6.87,6.87,0,0,1-4.82-1.66,5.68,5.68,0,0,1-1.78-4.34h-6.75a10.2,10.2,0,0,0,3.72,8.28,14.28,14.28,0,0,0,9.55,3.12,14.5,14.5,0,0,0,9.83-3.23,10.86,10.86,0,0,0,3.73-8.66A9.85,9.85,0,0,0,6189.8,240Z"/><path class="cls-4" d="M6203.87,227.55a4.48,4.48,0,0,0-5.81,0,3.72,3.72,0,0,0-1,2.68,3.51,3.51,0,0,0,1.05,2.63,4,4,0,0,0,2.88,1,3.89,3.89,0,0,0,2.91-1.05,3.6,3.6,0,0,0,1-2.62A3.72,3.72,0,0,0,6203.87,227.55Zm0,23.59a4.48,4.48,0,0,0-5.81,0,3.73,3.73,0,0,0-1,2.67,3.5,3.5,0,0,0,1.05,2.64,3.91,3.91,0,0,0,2.88,1,4,4,0,0,0,2.91-1,3.63,3.63,0,0,0,1-2.64A3.73,3.73,0,0,0,6203.87,251.14Z"/><path class="cls-4" d="M6227.53,216.58l-15.78,5.81v5.68l9.92-3.39v32.51h6.73V216.58Z"/><path class="cls-4" d="M6264.06,220.42q-3.27-4.23-9.92-4.24t-10,4.35q-3.27,4.36-3.26,13.09v7q.08,8.46,3.41,12.78t9.86,4.33q6.69,0,9.94-4.44t3.26-13.15v-7Q6267.32,224.68,6264.06,220.42Zm-3.41,21.31q-.09,5.47-1.65,8a5.2,5.2,0,0,1-4.81,2.57,5.32,5.32,0,0,1-5-2.77c-1.07-1.86-1.58-4.66-1.58-8.44V232c.05-3.56.59-6.18,1.64-7.85a6,6,0,0,1,9.81.13q1.55,2.65,1.55,8.35Z"/><path class="cls-4" d="M7331.91,211.53a25.89,25.89,0,1,0,25.89,25.89A25.93,25.93,0,0,0,7331.91,211.53Zm0,46.25a20.36,20.36,0,1,1,20.35-20.36A20.38,20.38,0,0,1,7331.91,257.78Z"/><polygon class="cls-4" points="7318.62 234.66 7318.62 240.19 7331.89 240.19 7345.16 240.19 7345.16 234.66 7331.89 234.66 7318.62 234.66"/><path class="cls-4" d="M7446.23,222a40.44,40.44,0,0,0-25.91-11.58c-.9-.08-1.82-.11-2.76-.11s-1.86,0-2.77.09a40.53,40.53,0,0,0-25.92,11.6l-1.59,1.75L7414,256.89l3.13,3.89.43.52,1.93-2.42,1.61-2,26.74-33.17Zm-14.4,12.78h0a23.57,23.57,0,0,0-28.54,0h0l-8.58-10.64a35.62,35.62,0,0,1,45.71,0Z"/><path class="cls-4" d="M7452.43,261.39h52.36V209Zm46.83-5.53h-17.81V240.2l17.81-17.81Z"/><path class="cls-4" d="M7558.71,214.24h-3.95v-5.36h-12.85v5.36h-4a5.16,5.16,0,0,0-5.15,5.16v35.72a5.16,5.16,0,0,0,5.15,5.15h20.76a5.15,5.15,0,0,0,5.16-5.15V219.4A5.15,5.15,0,0,0,7558.71,214.24Zm-.37,28.93h-20v-23.4h20Z"/><path class="cls-2" d="M547.46,2175V244a63,63,0,0,1,62.9-62.89H2180.48A63,63,0,0,1,2243.37,244V2175h56.39V244a119.42,119.42,0,0,0-119.28-119.28H610.36A119.42,119.42,0,0,0,491.07,244V2175Z"/><rect class="cls-6" x="653" y="1825.68" width="176.1" height="176.1" rx="24.13"/><rect class="cls-3" x="657.41" y="1030.07" width="666.01" height="217.73" rx="54.94"/><text class="cls-7" transform="translate(665.75 1534.86)">All</text><text class="cls-7" transform="translate(908.65 1878.26)">Instagram</text><path class="cls-5" d="M929.88,1952.55V1948H916v53.21h13.87v-4.53H921.1v-44.14Z"/><path class="cls-5" d="M959.87,1990.35a3.82,3.82,0,0,1-2.88-1.11,4.1,4.1,0,0,1-1.08-3v-32.54H940.07v4.65h10.75v27.89a8.54,8.54,0,0,0,2.46,6.38,9,9,0,0,0,6.59,2.4h9.62v-4.64Z"/><path class="cls-5" d="M998.26,1966.66q-3.28-3.26-9-3.25t-8.93,3.25c-2.19,2.18-3.3,5.24-3.3,9.21V1983c0,3.93,1.11,7,3.32,9.17a13.72,13.72,0,0,0,17.83,0c2.21-2.2,3.32-5.24,3.32-9.17v-7.12C1001.54,1971.9,1000.43,1968.84,998.26,1966.66Zm-1.81,16.9a7.41,7.41,0,0,1-1.91,5.49,8.22,8.22,0,0,1-10.44,0,7.38,7.38,0,0,1-1.92-5.49v-8.27a7.32,7.32,0,0,1,1.92-5.48,8.22,8.22,0,0,1,10.44,0,7.36,7.36,0,0,1,1.91,5.48Z"/><path class="cls-5" d="M1033.66,1966.21q-2.62-2.93-7.51-2.92a8.92,8.92,0,0,0-5.77,1.75,7.11,7.11,0,0,0-2.54,4.77h-.11v-6h-5.11V1995h5.11v-19.81a7.86,7.86,0,0,1,1.75-5.54,6.54,6.54,0,0,1,5.09-1.93c4.42,0,6.63,2.27,6.63,6.78v2.67h5.09v-2.67Q1036.29,1969.12,1033.66,1966.21Z"/><path class="cls-5" d="M1069.46,1980.72v-5.54a12.49,12.49,0,0,0-1.53-6.29,10.78,10.78,0,0,0-4.26-4.13,13.66,13.66,0,0,0-6.44-1.47,12.08,12.08,0,0,0-8.86,3.32c-2.25,2.21-3.36,5.25-3.36,9.14v7.36c0,3.88,1.11,6.93,3.36,9.14a12.08,12.08,0,0,0,8.86,3.32,14.06,14.06,0,0,0,8.21-2.31,8.58,8.58,0,0,0,3.79-6.19h-5.09a4.47,4.47,0,0,1-2.25,3,8.88,8.88,0,0,1-4.66,1.11,7,7,0,0,1-5.26-2,7.45,7.45,0,0,1-2-5.45v-3Zm-19.47-5.54a8,8,0,0,1,1.9-5.7,8.14,8.14,0,0,1,10.69,0,8,8,0,0,1,1.9,5.7v1.58H1050Z"/><path class="cls-5" d="M1103,1965.54a5.74,5.74,0,0,0-4.78-2.25,5.19,5.19,0,0,0-3.53,1.2,5.45,5.45,0,0,0-1.79,3.22h-.06a6.62,6.62,0,0,0-2-3.22,5.2,5.2,0,0,0-3.45-1.2,5,5,0,0,0-3.55,1.32,5.39,5.39,0,0,0-1.67,3.39H1082v-4.14h-4.4V1995h4.75v-23.77a4.38,4.38,0,0,1,.91-2.94,3.09,3.09,0,0,1,2.5-1.08,2.94,2.94,0,0,1,2.42,1.1,4.54,4.54,0,0,1,.91,3V1995h4.19v-23.77a4.49,4.49,0,0,1,.9-2.94,3.33,3.33,0,0,1,4.93,0,4.65,4.65,0,0,1,.9,3V1995h4.76v-23.66A8.92,8.92,0,0,0,1103,1965.54Z"/><path class="cls-5" d="M1129.11,1990.35v-26.49h-15v4.63h9.9v21.86h-11V1995h26.6v-4.64Zm-.17-38.36a4.25,4.25,0,0,0-2.94-1,4.33,4.33,0,0,0-3,1,3.58,3.58,0,0,0-1.07,2.71,3.35,3.35,0,0,0,1.07,2.59,4.28,4.28,0,0,0,3,1,4.21,4.21,0,0,0,2.94-1,3.29,3.29,0,0,0,1.08-2.59A3.52,3.52,0,0,0,1128.94,1952Z"/><path class="cls-5" d="M1168.4,1966.38a9.56,9.56,0,0,0-7.47-3.09,9.2,9.2,0,0,0-5.78,1.73,6.88,6.88,0,0,0-2.66,4.79h-.06v-6h-5.09v41.33h5.09v-9.07l-.11-7.07h.17a7,7,0,0,0,2.66,4.76,9.15,9.15,0,0,0,5.78,1.76,9.52,9.52,0,0,0,7.47-3.13,12.34,12.34,0,0,0,2.78-8.48v-9.12C1171.18,1971.25,1170.24,1968.44,1168.4,1966.38Zm-2.33,17.58c0,2.52-.59,4.35-1.81,5.49a7.1,7.1,0,0,1-5,1.7,6.43,6.43,0,0,1-5-2,7.66,7.66,0,0,1-1.85-5.48v-8.5a7.7,7.7,0,0,1,1.85-5.49,6.46,6.46,0,0,1,5-2,7,7,0,0,1,5,1.68c1.22,1.1,1.81,2.95,1.81,5.5Z"/><path class="cls-5" d="M1197.32,1977l-8-1.12c-2-.31-3-1.55-3-3.74a4,4,0,0,1,1.46-3.24,6.43,6.43,0,0,1,4.08-1.18h2.5a6.13,6.13,0,0,1,3.75,1.07,3.56,3.56,0,0,1,1.56,2.72h5.15a7.84,7.84,0,0,0-3.09-5.87,11.67,11.67,0,0,0-7.37-2.22h-2.5a11.84,11.84,0,0,0-7.73,2.32,7.85,7.85,0,0,0-2.81,6.4,8.85,8.85,0,0,0,1.78,5.74,7.42,7.42,0,0,0,4.91,2.63l8.61,1.25c2.44.33,3.68,1.85,3.68,4.52a4.28,4.28,0,0,1-1.56,3.52,6.94,6.94,0,0,1-4.38,1.24h-2.5a6.74,6.74,0,0,1-4.31-1.22,4.08,4.08,0,0,1-1.52-3.37h-5.09a8.11,8.11,0,0,0,2.86,6.65c1.91,1.58,4.59,2.36,8.06,2.36h2.5c3.46,0,6.15-.8,8.06-2.42a8.35,8.35,0,0,0,2.85-6.76Q1205.24,1978.13,1197.32,1977Z"/><path class="cls-5" d="M1233.82,1963.86v19.82a7.67,7.67,0,0,1-1.83,5.39,6.44,6.44,0,0,1-5,2,6.31,6.31,0,0,1-4.93-2,7.76,7.76,0,0,1-1.81-5.39v-19.82h-5.09v19.82a11.08,11.08,0,0,0,11.83,11.89,11.81,11.81,0,0,0,8.65-3.21,11.55,11.55,0,0,0,3.3-8.68v-19.82Z"/><path class="cls-5" d="M1272.8,1965.54a5.77,5.77,0,0,0-4.78-2.25,5.2,5.2,0,0,0-3.54,1.2,5.45,5.45,0,0,0-1.79,3.22h0a6.71,6.71,0,0,0-2-3.22,5.19,5.19,0,0,0-3.47-1.2,4.86,4.86,0,0,0-3.52,1.32,5.35,5.35,0,0,0-1.68,3.39h-.11v-4.14h-4.42V1995h4.76v-23.77a4.38,4.38,0,0,1,.91-2.94,3,3,0,0,1,2.48-1.08,3,3,0,0,1,2.44,1.1,4.53,4.53,0,0,1,.89,3V1995h4.2v-23.77a4.38,4.38,0,0,1,.91-2.94,3.32,3.32,0,0,1,4.92,0,4.54,4.54,0,0,1,.91,3V1995h4.74v-23.66A9,9,0,0,0,1272.8,1965.54Z"/><path class="cls-5" d="M1306,1956.81c-2.47-2.47-5.87-3.71-10.17-3.71q-7.11,0-11.2,4.4c-2.71,2.91-4.08,6.93-4.08,12v19.24a18.53,18.53,0,0,0,2,8.69,13.74,13.74,0,0,0,5.53,5.72,16.8,16.8,0,0,0,8.36,2h6.23v-4.25h-6.23a10.79,10.79,0,0,1-8.29-3.26q-3-3.26-3-8.92v-19.24q0-5.88,2.84-9.16a9.89,9.89,0,0,1,7.91-3.3c3,0,5.33.86,6.93,2.55s2.42,4.16,2.42,7.36v4H1305a4.4,4.4,0,0,0-2-2.48,7.41,7.41,0,0,0-3.85-.91,7,7,0,0,0-5.6,2.29,9.54,9.54,0,0,0-2,6.47v6.58a8.49,8.49,0,0,0,9,9,8.73,8.73,0,0,0,6.63-2.57,9.76,9.76,0,0,0,2.42-7V1967C1309.67,1962.66,1308.43,1959.29,1306,1956.81Zm-.82,26.07a5.71,5.71,0,0,1-1.2,3.83,4.73,4.73,0,0,1-6.66,0,5.71,5.71,0,0,1-1.21-3.83v-6.58a5.63,5.63,0,0,1,1.21-3.84,4.78,4.78,0,0,1,6.66,0,5.51,5.51,0,0,1,1.2,3.83Z"/><path class="cls-5" d="M1335.6,1963.86v5.38h-.11a6.48,6.48,0,0,0-2.67-4.37,9.31,9.31,0,0,0-5.55-1.58,9.64,9.64,0,0,0-7.58,3.13c-1.85,2.07-2.76,4.87-2.76,8.42v6.57c0,3.54.91,6.34,2.76,8.38a9.72,9.72,0,0,0,7.58,3,9.58,9.58,0,0,0,5.55-1.5,6.11,6.11,0,0,0,2.67-4.27h.17l-.12,5.09V1995a5.41,5.41,0,0,1-1.52,4,5.71,5.71,0,0,1-4.19,1.51H1321v4.65h8.73a11.11,11.11,0,0,0,7.94-2.75,9.75,9.75,0,0,0,2.92-7.45v-31.13Zm0,17.26a7.83,7.83,0,0,1-1.81,5.49,6.38,6.38,0,0,1-5,2,6.62,6.62,0,0,1-5-1.86,6.93,6.93,0,0,1-1.79-5v-7.09a6.91,6.91,0,0,1,1.79-5,6.59,6.59,0,0,1,5-1.87,6.45,6.45,0,0,1,5,2,7.87,7.87,0,0,1,1.81,5.49Z"/><path class="cls-5" d="M1374.68,1965.54a5.78,5.78,0,0,0-4.79-2.25,5.15,5.15,0,0,0-3.52,1.2,5.4,5.4,0,0,0-1.79,3.22h-.06a6.5,6.5,0,0,0-2-3.22,5.12,5.12,0,0,0-3.45-1.2,5,5,0,0,0-3.54,1.32,5.38,5.38,0,0,0-1.66,3.39h-.11v-4.14h-4.42V1995h4.76v-23.77a4.38,4.38,0,0,1,.9-2.94,3.08,3.08,0,0,1,2.49-1.08,2.94,2.94,0,0,1,2.42,1.1,4.54,4.54,0,0,1,.92,3V1995H1365v-23.77a4.49,4.49,0,0,1,.89-2.94,3.34,3.34,0,0,1,4.94,0,4.53,4.53,0,0,1,.89,3V1995h4.77v-23.66A8.92,8.92,0,0,0,1374.68,1965.54Z"/><path class="cls-5" d="M1405.58,1966c-2-1.81-4.92-2.73-8.69-2.73a13.37,13.37,0,0,0-8.34,2.4,8.25,8.25,0,0,0-3.43,6.1h5.1a3.59,3.59,0,0,1,1.93-3,9.24,9.24,0,0,1,4.74-1.07q6.63,0,6.63,6.06v2.42h-9.62a11.43,11.43,0,0,0-5.32,1.22,9,9,0,0,0-3.62,3.37,9.57,9.57,0,0,0-1.31,5,9.24,9.24,0,0,0,2.84,7,10.54,10.54,0,0,0,7.64,2.71,11.4,11.4,0,0,0,6.46-1.68,6.52,6.52,0,0,0,2.87-4.55h.12V1995h5V1973.6A9.66,9.66,0,0,0,1405.58,1966Zm-2.06,18.5a6.07,6.07,0,0,1-2.21,4.93,9.12,9.12,0,0,1-5.94,1.81,7.05,7.05,0,0,1-4.79-1.51,5.14,5.14,0,0,1-1.71-4.09,5.34,5.34,0,0,1,1.54-4,5.66,5.66,0,0,1,4.06-1.51h9Z"/><path class="cls-5" d="M1434.77,1990.35v-26.49h-15v4.63h9.91v21.86h-11V1995h26.62v-4.64Zm-.17-38.36a5,5,0,0,0-5.89,0,3.48,3.48,0,0,0-1.07,2.71,3.25,3.25,0,0,0,1.07,2.59,5,5,0,0,0,5.89,0,3.27,3.27,0,0,0,1.06-2.59A3.5,3.5,0,0,0,1434.6,1952Z"/><path class="cls-5" d="M1469.29,1990.35a3.82,3.82,0,0,1-2.88-1.11,4.1,4.1,0,0,1-1.08-3v-32.54h-15.85v4.65h10.76v27.89a8.54,8.54,0,0,0,2.46,6.38,9.05,9.05,0,0,0,6.59,2.4h9.62v-4.64Z"/><path class="cls-5" d="M1502.1,1987.7a5,5,0,0,0-6.75,0,4.69,4.69,0,0,0-1.27,3.39,4.37,4.37,0,0,0,1.27,3.22,5.15,5.15,0,0,0,6.75,0,4.33,4.33,0,0,0,1.27-3.22A4.65,4.65,0,0,0,1502.1,1987.7Z"/><path class="cls-5" d="M1538.18,1989.39a8.47,8.47,0,0,1-10.38-.28,7.12,7.12,0,0,1-2-5.43v-8.56a7.08,7.08,0,0,1,2-5.41,8.6,8.6,0,0,1,10.38-.27,6.28,6.28,0,0,1,2,4.62h5.09a10.39,10.39,0,0,0-3.49-7.87,14.47,14.47,0,0,0-17.74.28q-3.39,3.15-3.39,8.71v8.5a11.32,11.32,0,0,0,3.39,8.7,14.45,14.45,0,0,0,17.74.29,10.42,10.42,0,0,0,3.49-7.87h-5.09A6.33,6.33,0,0,1,1538.18,1989.39Z"/><path class="cls-5" d="M1575.58,1966.66c-2.17-2.17-5.16-3.25-8.93-3.25s-6.75,1.08-8.94,3.25-3.29,5.24-3.29,9.21V1983c0,3.93,1.1,7,3.31,9.17a13.72,13.72,0,0,0,17.83,0c2.21-2.2,3.32-5.24,3.32-9.17v-7.12C1578.88,1971.9,1577.77,1968.84,1575.58,1966.66Zm-1.81,16.9a7.44,7.44,0,0,1-1.88,5.49,7.17,7.17,0,0,1-12.37-5.49v-8.27a7.21,7.21,0,0,1,1.93-5.48,8.22,8.22,0,0,1,10.44,0,7.39,7.39,0,0,1,1.88,5.48Z"/><path class="cls-5" d="M1612.41,1965.54a5.74,5.74,0,0,0-4.78-2.25,5.24,5.24,0,0,0-3.54,1.2,5.49,5.49,0,0,0-1.78,3.22h0a6.71,6.71,0,0,0-2-3.22,5.2,5.2,0,0,0-3.45-1.2,4.88,4.88,0,0,0-3.54,1.32,5.35,5.35,0,0,0-1.68,3.39h-.12v-4.14H1587V1995h4.75v-23.77a4.38,4.38,0,0,1,.91-2.94,3,3,0,0,1,2.48-1.08,3,3,0,0,1,2.44,1.1,4.54,4.54,0,0,1,.91,3V1995h4.17v-23.77a4.39,4.39,0,0,1,.92-2.94,3.33,3.33,0,0,1,4.93,0,4.65,4.65,0,0,1,.9,3V1995h4.76v-23.66A9,9,0,0,0,1612.41,1965.54Z"/><path class="cls-5" d="M1626.07,1948v4.54h8.78v44.14h-8.78v4.53h13.87V1948Z"/><path class="cls-5" d="M855.59,1500.14v-5.41H839v63.54h16.55v-5.41H845.12v-52.72Z"/><path class="cls-5" d="M891.28,1545.29v-43.8H883l-11.16,8.31v7l13.39-10v38.52H871.81v5.55h30.43v-5.55Z"/><path class="cls-5" d="M937.39,1523.69q-3.72-3.75-10.56-3.74h-8l-.15-12.91h20.61v-5.55H913v24h13.45a8.28,8.28,0,0,1,6.23,2.38,8.83,8.83,0,0,1,2.29,6.42v3a8.79,8.79,0,1,1-17.57,0h-6.08c0,4.38,1.33,7.83,4,10.38s6.27,3.81,10.82,3.81,8.24-1.25,10.92-3.81,4-6,4-10.38v-3Q941.1,1527.46,937.39,1523.69Z"/><path class="cls-5" d="M973.87,1522.45v12H957.66v-2.63l18.78-30.35h-6.89l-18,29V1540h22.29v10.82H980v-28.39Z"/><path class="cls-5" d="M997.53,1494.73v5.41H1008v52.72H997.53v5.41h16.56v-63.54Z"/><text class="cls-8" transform="translate(1600.56 1155.46)">[generate]</text><rect class="cls-6" x="651.47" y="1604.19" width="1490.85" height="5.72"/><path class="cls-4" d="M712.61,1934.2v-4.64H721v-32h-8.43v-4.64h22.07v4.64h-8.43v32h8.43v4.64Z"/><path class="cls-4" d="M745.72,1934.2v-41.32h6.79l12.62,35.37c-.07-.94-.16-2.1-.25-3.48s-.17-2.83-.23-4.36-.08-3-.08-4.33v-23.2h4.92v41.32H762.7l-12.56-35.38c.07.91.15,2,.22,3.42s.14,2.83.2,4.36.08,3,.08,4.39v23.21Z"/><path class="cls-9" d="M920.39,1112.92v-5.34H904.06v62.69h16.33v-5.34H910.07v-52Z"/><path class="cls-9" d="M960.71,1128.79c-2.38-2.13-5.8-3.2-10.23-3.2q-6.15,0-9.84,2.84a9.57,9.57,0,0,0-4,7.16h6a4.17,4.17,0,0,1,2.26-3.52,10.89,10.89,0,0,1,5.61-1.28q7.8,0,7.79,7.14v2.86H946.93a13.45,13.45,0,0,0-6.27,1.45,10.64,10.64,0,0,0-4.26,4,11.35,11.35,0,0,0-1.53,5.93,10.92,10.92,0,0,0,3.34,8.31c2.21,2.11,5.22,3.16,9,3.16a13.18,13.18,0,0,0,7.6-2,7.75,7.75,0,0,0,3.41-5.38h.13v6.67h5.93v-25.2C964.27,1133.91,963.09,1130.92,960.71,1128.79Zm-2.44,21.81a7.1,7.1,0,0,1-2.59,5.8,10.71,10.71,0,0,1-7,2.13,8.23,8.23,0,0,1-5.62-1.75,6,6,0,0,1-2-4.84,6.25,6.25,0,0,1,1.83-4.71,6.56,6.56,0,0,1,4.76-1.77h10.67Z"/><path class="cls-9" d="M998.28,1114.25v10.67l.13,8.35h-.06a8.26,8.26,0,0,0-3.23-5.6,10.92,10.92,0,0,0-6.84-2.08,11.27,11.27,0,0,0-8.81,3.68q-3.26,3.64-3.25,10V1150q0,6.3,3.29,10a11.26,11.26,0,0,0,8.77,3.66,10.9,10.9,0,0,0,6.8-2,8.07,8.07,0,0,0,3.14-5.64h.06v7h6v-48.68Zm0,35.34a9.21,9.21,0,0,1-2.14,6.48,7.5,7.5,0,0,1-5.86,2.33,8.31,8.31,0,0,1-5.93-2c-1.43-1.34-2.13-3.49-2.13-6.46v-10.67c0-3,.7-5.2,2.13-6.5a8.39,8.39,0,0,1,5.93-2,7.51,7.51,0,0,1,5.86,2.34,9.23,9.23,0,0,1,2.14,6.46Z"/><path class="cls-9" d="M1038.29,1114.25v10.67l.13,8.35h-.06a8.26,8.26,0,0,0-3.23-5.6,10.94,10.94,0,0,0-6.84-2.08,11.27,11.27,0,0,0-8.81,3.68q-3.26,3.64-3.25,10V1150q0,6.3,3.29,10a11.26,11.26,0,0,0,8.77,3.66,10.9,10.9,0,0,0,6.8-2,8.07,8.07,0,0,0,3.14-5.64h.06v7h6v-48.68Zm0,35.34a9.21,9.21,0,0,1-2.14,6.48,7.5,7.5,0,0,1-5.86,2.33,8.31,8.31,0,0,1-5.93-2c-1.43-1.34-2.13-3.49-2.13-6.46v-10.67c0-3,.7-5.2,2.13-6.5a8.39,8.39,0,0,1,5.93-2,7.51,7.51,0,0,1,5.86,2.34,9.23,9.23,0,0,1,2.14,6.46Z"/><path class="cls-9" d="M1060.43,1107.58v5.34h10.34v52h-10.34v5.34h16.34v-62.69Z"/><path class="cls-6" d="M2078.93,1027.2H1522.79A57.85,57.85,0,0,0,1465,1085v107.85a57.85,57.85,0,0,0,57.79,57.81h556.14a57.86,57.86,0,0,0,57.78-57.81V1085A57.86,57.86,0,0,0,2078.93,1027.2ZM2131,1192.86a52.15,52.15,0,0,1-52.07,52.09H1522.79a52.15,52.15,0,0,1-52.07-52.09V1085a52.15,52.15,0,0,1,52.07-52.09h556.14A52.15,52.15,0,0,1,2131,1085Z"/><path class="cls-4" d="M667.34,290.43l10.21-10.94a36.52,36.52,0,0,0,5.79-7.79,14.58,14.58,0,0,0,1.76-6.55,10.63,10.63,0,0,0-3.51-8.46q-3.51-3.06-9.6-3.05a15.65,15.65,0,0,0-7.45,1.69,12,12,0,0,0-5,4.75,13.53,13.53,0,0,0-1.74,6.88h7a8.13,8.13,0,0,1,1.87-5.66,6.73,6.73,0,0,1,5.26-2.06,5.86,5.86,0,0,1,4.52,1.83,6.86,6.86,0,0,1,1.67,4.82,9.06,9.06,0,0,1-1.27,4.52,36.34,36.34,0,0,1-4.29,5.62l-13.93,15.18V296h28.1v-5.58Z"/><path class="cls-4" d="M715.66,278.25a10.38,10.38,0,0,0-5.24-3.69,11.45,11.45,0,0,0,4.63-3.74,8.85,8.85,0,0,0,1.79-5.31c0-3.72-1.18-6.63-3.57-8.73s-5.65-3.14-9.83-3.14a15.65,15.65,0,0,0-6.86,1.47,11.51,11.51,0,0,0-4.76,4.13,10.63,10.63,0,0,0-1.69,5.85h7a5.37,5.37,0,0,1,1.81-4.23,6.59,6.59,0,0,1,4.61-1.62,6.26,6.26,0,0,1,4.78,1.64,6.44,6.44,0,0,1,1.56,4.63,6,6,0,0,1-1.86,4.74,7.76,7.76,0,0,1-5.11,1.68h-4.25v5.51h4.12c2.55,0,4.49.59,5.79,1.77a6.54,6.54,0,0,1,1.94,5.08,6.45,6.45,0,0,1-1.86,5,7.26,7.26,0,0,1-5.11,1.71,7,7,0,0,1-5-1.71,5.83,5.83,0,0,1-1.85-4.48h-7a10.58,10.58,0,0,0,3.82,8.55,14.86,14.86,0,0,0,9.89,3.22c4.19,0,7.57-1.1,10.14-3.33a11.25,11.25,0,0,0,3.87-9A10.17,10.17,0,0,0,715.66,278.25Z"/><path class="cls-4" d="M730.19,265.39a4,4,0,0,0-3-1.1,3.92,3.92,0,0,0-3,1.1,3.87,3.87,0,0,0-1.07,2.77,3.65,3.65,0,0,0,1.09,2.72,4.68,4.68,0,0,0,6,0,3.65,3.65,0,0,0,1-2.7A3.81,3.81,0,0,0,730.19,265.39Zm0,24.37a4,4,0,0,0-3-1.1,3.73,3.73,0,0,0-4,3.87,3.64,3.64,0,0,0,1.09,2.72,4,4,0,0,0,2.95,1.07,4.11,4.11,0,0,0,3-1.07,3.69,3.69,0,0,0,1-2.72A3.84,3.84,0,0,0,730.19,289.76Z"/><path class="cls-4" d="M754.64,254.06l-16.31,6v5.87l10.25-3.51V296h6.95V254.06Z"/><path class="cls-4" d="M792.36,258c-2.25-2.91-5.66-4.38-10.23-4.38s-8,1.5-10.29,4.5-3.37,7.52-3.37,13.52v7.24q.09,8.75,3.52,13.21c2.29,3,5.68,4.47,10.2,4.47s8-1.52,10.27-4.59,3.37-7.58,3.37-13.58v-7.24Q795.74,262.42,792.36,258Zm-3.51,22c-.05,3.77-.62,6.53-1.69,8.3a5.4,5.4,0,0,1-5,2.65,5.49,5.49,0,0,1-5.13-2.86c-1.1-1.92-1.64-4.82-1.64-8.72V270c.06-3.68.61-6.38,1.7-8.12a6.14,6.14,0,0,1,10.12.14c1.08,1.82,1.61,4.7,1.61,8.63Z"/><path class="cls-4" d="M1895.74,248.84a26.75,26.75,0,1,0,26.75,26.75A26.78,26.78,0,0,0,1895.74,248.84Zm0,47.78a21,21,0,1,1,21-21A21.06,21.06,0,0,1,1895.74,296.62Z"/><polygon class="cls-4" points="1882.01 272.74 1882.01 278.45 1895.72 278.45 1909.43 278.45 1909.43 272.74 1895.72 272.74 1882.01 272.74"/><path class="cls-4" d="M2013.86,259.62a41.79,41.79,0,0,0-26.77-12q-1.39-.12-2.85-.12c-1,0-1.93,0-2.86.1a41.92,41.92,0,0,0-26.79,12l-1.64,1.81,27.61,34.28,3.24,4,.44.53,2-2.5,1.65-2.05,27.63-34.28ZM1999,272.82v0a24.36,24.36,0,0,0-29.49,0l0,0-8.86-11a36.82,36.82,0,0,1,47.23,0Z"/><path class="cls-4" d="M2020.26,300.36h54.11V246.27Zm48.4-5.72h-18.43V278.46l18.43-18.4Z"/><path class="cls-4" d="M2130.08,251.64H2126v-5.55h-13.26v5.55h-4.1a5.33,5.33,0,0,0-5.32,5.33v36.91a5.32,5.32,0,0,0,5.32,5.31h21.45a5.33,5.33,0,0,0,5.34-5.31V257A5.34,5.34,0,0,0,2130.08,251.64Zm-.38,29.89H2109V257.35h20.67Z"/><path class="cls-4" d="M2087.47,495a19.87,19.87,0,1,0,19.86,19.86A19.87,19.87,0,0,0,2087.47,495Zm0,29.72a9.86,9.86,0,1,1,9.86-9.86A9.85,9.85,0,0,1,2087.47,524.72Z"/><path class="cls-4" d="M2135.53,527.24l-6.67-4.55-4-2.76h0a36.9,36.9,0,0,0,.34-5.07,37.34,37.34,0,0,0-.35-5.1h0l4.05-2.76,6.67-4.55a2.12,2.12,0,0,0,.64-2.82l-4-7-3.09-5.36-4-7a2.13,2.13,0,0,0-2.77-.86l-7.27,3.49-4.44,2.14a37.51,37.51,0,0,0-8.77-5.08l-.37-4.88-.61-8a2.13,2.13,0,0,0-2.12-2h-22.33a2.13,2.13,0,0,0-2.12,2l-.61,8-.37,4.86a36.92,36.92,0,0,0-8.81,5.09l-4.43-2.12-7.27-3.5a2.12,2.12,0,0,0-2.76.86l-.51.86-3.53,6.12h0l-3.09,5.36h0l-2.34,4.05-1.7,2.94a2.14,2.14,0,0,0,.64,2.82l6.67,4.56,4,2.75a37.48,37.48,0,0,0-.35,5.11,38.7,38.7,0,0,0,.34,5.08h0l-4,2.75-6.66,4.55a2.14,2.14,0,0,0-.65,2.82l4,7,3.09,5.36,4,7a2.13,2.13,0,0,0,2.76.85l7.27-3.5,4.38-2.1a37.16,37.16,0,0,0,8.86,5.11l.37,4.87.61,8a2.13,2.13,0,0,0,2.12,2h22.33a2.13,2.13,0,0,0,2.12-2l.61-8,.37-4.88a37.53,37.53,0,0,0,8.81-5.11l4.4,2.12,7.27,3.49a2.14,2.14,0,0,0,2.77-.85l4-7,3.09-5.36,4-7A2.12,2.12,0,0,0,2135.53,527.24Zm-20.43-14c0,.52.05,1.05.05,1.57s0,1-.05,1.53h0a27.34,27.34,0,0,1-1.61,7.92l8.46,5.79,1.89,1.29-3.85,6.68-2.07-1-9.23-4.44a27.62,27.62,0,0,1-6,5.38,27.45,27.45,0,0,1-10.35,4.11l-.78,10.22-.17,2.29h-7.71l-.18-2.29-.77-10.2a27.6,27.6,0,0,1-7.73-2.58,27,27,0,0,1-2.62-1.51,27.81,27.81,0,0,1-6.09-5.41l-9.23,4.44-2.05,1-3.85-6.68,1.87-1.28,8.46-5.78a27.49,27.49,0,0,1-1.62-7.94c0-.5,0-1,0-1.52s0-1,0-1.55a27.5,27.5,0,0,1,1.63-7.94l-8.45-5.78-1.89-1.29h0l3.85-6.68,2.07,1,9.24,4.44a27.75,27.75,0,0,1,6.06-5.38,26,26,0,0,1,2.67-1.53h0a27.05,27.05,0,0,1,7.67-2.55l.77-10.21.18-2.29h7.71l.17,2.29.78,10.22a27.2,27.2,0,0,1,7.63,2.54,25.26,25.26,0,0,1,2.72,1.57,27.8,27.8,0,0,1,6,5.34l9.23-4.44,2.1-1,3.85,6.69-1.9,1.3-8.46,5.78A27.29,27.29,0,0,1,2115.1,513.29Z"/><path class="cls-4" d="M2104.5,1533.82l-3.45-.11-1.13-1.13a27.91,27.91,0,1,0-2.93,2.87h0l1.17,1.17.11,3.44,21.62,21.63,1.67-1.67,2.9-2.9,1.67-1.67Zm-38.9-6.16a19,19,0,1,1,26.85,0A19,19,0,0,1,2065.6,1527.66Z"/><text class="cls-10" transform="translate(663.44 551.96)">Saved<tspan x="0" y="159.65">Password</tspan></text><path class="cls-1" d="M4995.68,2175V898a101.25,101.25,0,0,0-101.13-101.15H3350.5A101.26,101.26,0,0,0,3249.35,898V2175Z"/><path class="cls-2" d="M3276.85,2175V898a73.64,73.64,0,0,1,73.65-73.65H4894.55A73.63,73.63,0,0,1,4968.18,898V2175h55V898a128.56,128.56,0,0,0-128.63-128.65H3350.5A128.59,128.59,0,0,0,3221.85,898V2175Z"/><text class="cls-11" transform="translate(3433.7 1250.6)">Welcome back<tspan x="0" y="159.04">to </tspan><tspan class="cls-3" x="215.32" y="159.04">NewPass</tspan><tspan class="cls-12" x="717.72" y="159.04">!</tspan></text><path class="cls-13" d="M4236,2175q-1.84-25.77-1.86-52V1766.51q58.48-15.42,115.22-34.87a1673,1673,0,0,0,453.1-238.08,1677.3,1677.3,0,0,0,163.64,106.91V1303.61a1436.76,1436.76,0,0,1-163.64-137.34c-158.27,154.33-352.23,272.26-568.32,340.16q-19.14,6-38.47,11.49a1423.42,1423.42,0,0,1-211.41,42.89v562.12q0,26.18,1.39,52Z"/><path class="cls-13" d="M4688.45,2175h228.11a170.79,170.79,0,0,0,49.58-78.08V1999a170.78,170.78,0,1,0-277.69,176Z"/><path class="cls-4" d="M3393.23,935.61l10.21-10.94a36.52,36.52,0,0,0,5.79-7.79,14.42,14.42,0,0,0,1.76-6.55,10.63,10.63,0,0,0-3.51-8.46q-3.51-3.06-9.6-3a15.54,15.54,0,0,0-7.45,1.7,11.91,11.91,0,0,0-5,4.74,13.56,13.56,0,0,0-1.74,6.88h7a8.13,8.13,0,0,1,1.86-5.66,6.73,6.73,0,0,1,5.26-2.06,5.86,5.86,0,0,1,4.52,1.83,6.86,6.86,0,0,1,1.67,4.82,9.06,9.06,0,0,1-1.27,4.52,36.34,36.34,0,0,1-4.29,5.62l-13.93,15.18v4.8h28.11v-5.58Z"/><path class="cls-4" d="M3441.55,923.44a10.34,10.34,0,0,0-5.24-3.7,11.51,11.51,0,0,0,4.63-3.73,8.9,8.9,0,0,0,1.79-5.32,11,11,0,0,0-3.56-8.73c-2.39-2.09-5.66-3.14-9.84-3.14a15.72,15.72,0,0,0-6.85,1.47,11.54,11.54,0,0,0-4.77,4.13,10.63,10.63,0,0,0-1.69,5.85h7a5.37,5.37,0,0,1,1.81-4.23,6.64,6.64,0,0,1,4.61-1.62,6.3,6.3,0,0,1,4.78,1.64,6.46,6.46,0,0,1,1.56,4.63,6,6,0,0,1-1.86,4.74,7.76,7.76,0,0,1-5.11,1.68h-4.25v5.51h4.12c2.55,0,4.49.59,5.79,1.77a6.52,6.52,0,0,1,1.94,5.09,6.44,6.44,0,0,1-1.86,5,7.26,7.26,0,0,1-5.11,1.71,7,7,0,0,1-5-1.71,5.83,5.83,0,0,1-1.85-4.48h-7a10.56,10.56,0,0,0,3.83,8.55,14.81,14.81,0,0,0,9.88,3.22c4.2,0,7.57-1.1,10.14-3.33a11.25,11.25,0,0,0,3.87-8.95A10.13,10.13,0,0,0,3441.55,923.44Z"/><path class="cls-4" d="M3456.08,910.58a3.94,3.94,0,0,0-3-1.11,3.88,3.88,0,0,0-3,1.11,3.82,3.82,0,0,0-1.06,2.76,3.65,3.65,0,0,0,1.08,2.72,4.06,4.06,0,0,0,3,1.07,4,4,0,0,0,3-1.09,3.65,3.65,0,0,0,1.05-2.7A3.77,3.77,0,0,0,3456.08,910.58Zm0,24.36a4,4,0,0,0-3-1.1,3.72,3.72,0,0,0-4,3.87,3.62,3.62,0,0,0,1.08,2.72,4,4,0,0,0,3,1.07,4.07,4.07,0,0,0,3-1.07,3.69,3.69,0,0,0,1.05-2.72A3.84,3.84,0,0,0,3456.08,934.94Z"/><path class="cls-4" d="M3480.53,899.24l-16.31,6v5.87l10.25-3.51v33.59h7v-42Z"/><path class="cls-4" d="M3518.25,903.2c-2.25-2.91-5.66-4.38-10.23-4.38s-8,1.51-10.29,4.5-3.37,7.52-3.37,13.52v7.24q.09,8.74,3.52,13.21c2.29,3,5.68,4.47,10.2,4.47s8-1.52,10.27-4.59,3.37-7.58,3.37-13.58v-7.24Q3521.63,907.61,3518.25,903.2Zm-3.5,22c-.06,3.77-.63,6.53-1.7,8.3a5.37,5.37,0,0,1-5,2.65,5.49,5.49,0,0,1-5.13-2.86c-1.1-1.92-1.64-4.82-1.64-8.72v-9.47c.06-3.68.61-6.38,1.7-8.12a6.14,6.14,0,0,1,10.12.14c1.08,1.83,1.62,4.7,1.62,8.63Z"/><path class="cls-4" d="M4621.63,894a26.75,26.75,0,1,0,26.75,26.75A26.78,26.78,0,0,0,4621.63,894Zm0,47.78a21,21,0,1,1,21-21A21,21,0,0,1,4621.63,941.8Z"/><polygon class="cls-4" points="4607.9 917.92 4607.9 923.63 4621.61 923.63 4635.32 923.63 4635.32 917.92 4621.61 917.92 4607.9 917.92"/><path class="cls-4" d="M4739.75,904.8a41.75,41.75,0,0,0-26.76-12c-.94-.08-1.89-.12-2.86-.12s-1.93,0-2.86.1a41.92,41.92,0,0,0-26.79,12l-1.64,1.81,27.61,34.28,3.24,4,.44.53,2-2.49,1.66-2.06,27.62-34.28ZM4724.87,918v0a24.32,24.32,0,0,0-29.49,0l0,0-8.86-11a36.82,36.82,0,0,1,47.23,0Z"/><path class="cls-4" d="M4746.16,945.54h54.1V891.45Zm48.39-5.72h-18.42V923.65l18.42-18.41Z"/><path class="cls-4" d="M4856,896.82h-4.09v-5.54h-13.26v5.54h-4.1a5.32,5.32,0,0,0-5.31,5.33v36.91a5.31,5.31,0,0,0,5.31,5.31H4856a5.33,5.33,0,0,0,5.34-5.31V902.15A5.34,5.34,0,0,0,4856,896.82Zm-.38,29.89h-20.67V902.54h20.67Z"/></svg>